<svg xmlns="http://www.w3.org/2000/svg" width="114" height="20" fill="none"><g clip-path="url(#a)"><path fill="#fff" d="M104.279.045c.613-.04 1.066.247 1.34.762.334.628.618 1.284.908 1.934a21651.6 21651.6 0 0 1 6.615 14.832c.095.21.174.428.277.634.153.303.162.625.122.944-.048.394-.312.635-.68.745a2.08 2.08 0 0 1-.579.083c-2.687.004-5.376.003-8.064.003-2.689 0-5.377.002-8.066-.005-.206 0-.42-.037-.617-.1-.593-.191-.87-.762-.657-1.43.153-.483.372-.947.579-1.412 2.35-5.27 4.705-10.538 7.056-15.808.227-.509.52-.956 1.083-1.124.215-.064.455-.044.683-.058ZM50.064.044c.76-.053 1.25.337 1.547.988.72 1.583 1.424 3.174 2.132 4.762 1.83 4.103 3.66 8.206 5.478 12.313.116.261.176.56.195.846.03.474-.262.83-.723.95-.864.221-1.582-.049-1.998-.943a36.308 36.308 0 0 1-.588-1.32c-.058-.14-.131-.182-.278-.182-1.938.005-3.876.004-5.813.004-1.93 0-3.861.002-5.792-.005-.167 0-.242.05-.309.202a34.902 34.902 0 0 1-.759 1.657c-.386.771-1.511.84-2.107.377-.381-.296-.473-.725-.334-1.155.177-.55.412-1.083.647-1.612 1.548-3.478 3.102-6.954 4.655-10.43.79-1.766 1.583-3.531 2.367-5.3.225-.507.528-.931 1.08-1.099.189-.057.4-.04.6-.053Zm44.762.135c.18 0 .367.016.54.059.634.157.927.602.868 1.29-.056.65-.446 1.037-1.092 1.082-.14.01-.28.016-.42.016-1.79.001-3.58 0-5.37 0h-.275v.307c0 5.126.002 10.253-.003 15.379 0 .25-.03.504-.088.747-.104.445-.39.725-.838.848a1.855 1.855 0 0 1-1.153-.049c-.53-.193-.813-.677-.815-1.407-.004-1.136-.001-2.272-.001-3.408V2.627h-.263l-5.497-.001a2.34 2.34 0 0 1-.481-.034c-.526-.11-.845-.49-.882-1.034-.02-.29-.004-.575.146-.835.243-.424.654-.514 1.094-.546.055-.004.111 0 .168 0 4.787 0 9.575-.002 14.362.002ZM64.336.177C66.49.174 68.646.165 70.8.179c1.214.008 2.398.2 3.5.747 1.488.74 2.402 1.927 2.776 3.54.3 1.295.276 2.585-.112 3.852-.561 1.83-1.84 2.944-3.64 3.495a8.179 8.179 0 0 1-2.38.348c-1.102.003-2.203-.002-3.304.001-.674.002-1.347.01-2.021.016-.05 0-.098.005-.173.01v.273c0 1.915.003 3.83-.003 5.745 0 .257-.028.518-.077.77-.108.55-.46.874-1.006.956a2.39 2.39 0 0 1-.773-.01c-.682-.126-1.023-.573-1.06-1.333-.004-.056-.002-.112-.002-.168 0-5.533 0-11.067.003-16.6 0-.23.011-.465.062-.687a1.203 1.203 0 0 1 1.053-.92c.23-.023.461-.037.693-.037ZM9.36.002c.817-.033 1.311.387 1.62 1.079 1.269 2.838 2.538 5.675 3.803 8.514 1.269 2.846 2.534 5.693 3.797 8.542.14.314.236.64.158.996a.916.916 0 0 1-.637.717c-.701.234-1.546.077-1.927-.665-.325-.633-.61-1.287-.9-1.936a120.42 120.42 0 0 1-.89-2.058c-.065-.153-.149-.222-.328-.222-3.159.006-6.318.006-9.477.001-.155 0-.216.058-.272.192a361.15 361.15 0 0 1-1.545 3.622c-.099.23-.233.447-.374.655-.443.656-1.596.647-2.1.148-.328-.326-.339-.754-.215-1.14.19-.596.452-1.17.707-1.744 2.054-4.614 4.112-9.227 6.172-13.839.285-.638.584-1.27.876-1.905.305-.661.816-.986 1.532-.957Zm14.16.175c1.754-.003 3.51-.02 5.264.003 1.697.023 3.363.272 4.923.979 2.265 1.026 3.733 2.755 4.441 5.131.41 1.375.517 2.782.473 4.212-.04 1.303-.243 2.572-.699 3.793-.897 2.402-2.628 3.949-5.011 4.802-1.126.403-2.297.596-3.49.655-.21.01-.42.023-.63.023-1.839.002-3.678.003-5.517-.002-.201 0-.409-.016-.604-.064-.703-.172-1.035-.654-1.045-1.49-.005-.364-.001-.729-.001-1.093l-.001-7.132c0-2.727-.003-5.455.007-8.183 0-.274.051-.56.141-.818.166-.475.553-.707 1.035-.776a5.1 5.1 0 0 1 .713-.04Zm74.584 17.42h12.119l-6.042-14.213-6.077 14.212ZM27.51 2.611c-.919-.01-1.838.008-2.757.014-.066 0-.133.01-.202.016v14.695h.246c1.186 0 2.373.004 3.559-.001.834-.004 1.666-.062 2.48-.253 2.197-.518 3.725-1.785 4.369-3.991.54-1.85.537-3.73.16-5.607-.495-2.47-2.194-4.126-4.655-4.63-1.06-.217-2.129-.23-3.2-.243Zm17.55 12.461h9.931l-4.96-11.701-4.971 11.701ZM5.222 12.616h7.83L9.124 3.368l-3.902 9.248ZM65.664 2.524c-.068 0-.135.007-.209.01v7.307c.061.003.103.006.143.006 1.586 0 3.171.018 4.756-.01a6.902 6.902 0 0 0 1.615-.212c1.1-.288 1.916-.932 2.267-2.06.19-.611.233-1.24.18-1.87-.101-1.21-.618-2.164-1.754-2.715a4.645 4.645 0 0 0-2.01-.45c-1.662-.014-3.325-.006-4.988-.006Z"/></g><defs><clipPath id="a"><path fill="#fff" d="M0 0h113.75v20H0z"/></clipPath></defs></svg>